# File created by Blade
# Date/Time:  Wed Apr 08 17:31:39 2015
# Frame Rate: 120.000 fps
#------------------------------------------------------
:FULLY-SPECIFIED
:DEGREES
625
root -0.157450 22.125773 -0.270661 -579.179693 -88.363805 405.634025
Spine 193.492731 -0.086088 0.586634
Head 15.169802 12.868342 2.189329
LeftShoulder -5.696142 24.766268 24.499587
LeftArm 20.026235 12.694476 -84.856725
LeftForeArm 21.687047 -0.000000 38.299185
LeftHand -12.747979 -0.000000 -1.934432
LeftHandThumb1 -26.253704 0.000000 33.147579
RightShoulder -30.698386 -56.942481 -4.596259
RightArm 54.869602 -15.533574 37.217266
RightForeArm -7.251277 -0.000000 47.833654
RightHand 5.226653 -0.000000 0.371281
RightHandThumb1 -24.326973 -0.000000 -32.862282
LeftUpLeg 119.273020 -13.795220 -13.668339
LeftLeg 120.976168 -0.000000 -0.000000
LeftFoot -28.259222 -8.963979 -10.426874
LeftToeBase -30.354336 -0.000000 0.000000
RightUpLeg 123.547148 15.547344 17.083562
RightLeg 121.157379 -0.000000 -0.000000
RightFoot -32.173667 14.832578 14.266085
RightToeBase -24.920539 -0.000000 0.000000
626
root -0.182209 22.118418 -0.265302 -580.979129 -88.393382 407.574635
Spine 193.255835 -0.099632 0.609204
Head 15.166904 12.808161 2.128456
LeftShoulder -5.744441 24.756705 24.460237
LeftArm 19.951902 12.558489 -84.865946
LeftForeArm 21.448445 -0.000000 38.400557
LeftHand -12.796243 -0.000000 -1.771014
LeftHandThumb1 -26.253704 0.000000 33.147579
RightShoulder -30.824211 -56.949595 -4.478084
RightArm 54.882419 -15.747789 37.225390
RightForeArm -7.018362 -0.000000 47.900838
RightHand 4.978180 -0.000000 0.556465
RightHandThumb1 -24.326973 -0.000000 -32.862282
LeftUpLeg 119.168204 -13.723616 -13.622645
LeftLeg 121.042090 -0.000000 -0.000000
LeftFoot -28.205107 -8.883884 -10.529551
LeftToeBase -30.511402 -0.000000 0.000000
RightUpLeg 123.432984 15.579587 17.114051
RightLeg 121.191911 -0.000000 -0.000000
RightFoot -32.149300 14.865819 14.184364
RightToeBase -25.041517 -0.000000 0.000000
627
root -0.203325 22.109121 -0.263337 -582.129481 -88.422528 408.782037
Spine 193.085874 -0.117560 0.627867
Head 15.185120 12.718191 2.100198
LeftShoulder -5.761039 24.787818 24.453198
LeftArm 19.911707 12.446156 -84.845390
LeftForeArm 21.121377 -0.000000 38.487165
LeftHand -12.847090 -0.000000 -1.595471
LeftHandThumb1 -26.253704 0.000000 33.147579
RightShoulder -30.968945 -56.978165 -4.336651
RightArm 54.912211 -15.987654 37.210954
RightForeArm -6.835143 -0.000000 47.947183
RightHand 5.064299 -0.000000 0.384927
RightHandThumb1 -24.326973 -0.000000 -32.862282
LeftUpLeg 119.131580 -13.678233 -13.618430
LeftLeg 121.107457 -0.000000 -0.000000
LeftFoot -28.165415 -8.802839 -10.558308
LeftToeBase -30.673191 -0.000000 0.000000
RightUpLeg 123.389404 15.596627 17.132536
RightLeg 121.236643 -0.000000 -0.000000
RightFoot -32.139476 14.884989 14.130807
RightToeBase -25.084724 -0.000000 0.000000
628
root -0.224249 22.099605 -0.259077 -581.912547 -88.521424 408.650202
Spine 192.896955 -0.169549 0.596430
Head 15.206249 12.648083 2.125042
LeftShoulder -5.758840 24.783410 24.491397
LeftArm 19.838087 12.317314 -84.842927
LeftForeArm 20.895052 -0.000000 38.579523
LeftHand -12.912181 -0.000000 -1.563371
LeftHandThumb1 -26.253704 0.000000 33.147579
RightShoulder -31.068634 -56.989239 -4.216949
RightArm 54.926595 -16.209570 37.233952
RightForeArm -6.709586 -0.000000 48.004302
RightHand 5.099301 -0.000000 0.422991
RightHandThumb1 -24.326973 -0.000000 -32.862282
LeftUpLeg 119.087449 -13.704180 -13.695722
LeftLeg 121.190296 -0.000000 -0.000000
LeftFoot -28.173408 -8.790060 -10.568403
LeftToeBase -30.734864 -0.000000 0.000000
RightUpLeg 123.314441 15.617423 17.059091
RightLeg 121.261961 -0.000000 -0.000000
RightFoot -32.125961 14.889850 14.076339
RightToeBase -25.131295 -0.000000 0.000000
